<svg width="72" height="20" viewBox="0 0 72 20" fill="none" xmlns="http://www.w3.org/2000/svg">
<path d="M8.112 19.288C6.976 19.288 5.92 19.08 4.944 18.664C3.984 18.248 3.152 17.672 2.448 16.936C1.76 16.184 1.256 15.312 0.936 14.32L3.648 13.144C4.08 14.168 4.704 14.976 5.52 15.568C6.336 16.144 7.256 16.432 8.28 16.432C8.856 16.432 9.352 16.344 9.768 16.168C10.2 15.976 10.528 15.72 10.752 15.4C10.992 15.08 11.112 14.696 11.112 14.248C11.112 13.72 10.952 13.288 10.632 12.952C10.328 12.6 9.864 12.328 9.24 12.136L5.808 11.032C4.416 10.6 3.368 9.952 2.664 9.088C1.96 8.224 1.608 7.208 1.608 6.04C1.608 5.016 1.856 4.112 2.352 3.328C2.864 2.544 3.568 1.936 4.464 1.504C5.376 1.056 6.416 0.831999 7.584 0.831999C8.656 0.831999 9.64 1.024 10.536 1.408C11.432 1.776 12.2 2.296 12.84 2.968C13.496 3.624 13.984 4.4 14.304 5.296L11.616 6.496C11.264 5.6 10.736 4.912 10.032 4.432C9.328 3.936 8.512 3.688 7.584 3.688C7.04 3.688 6.56 3.784 6.144 3.976C5.728 4.152 5.4 4.408 5.16 4.744C4.936 5.064 4.824 5.448 4.824 5.896C4.824 6.392 4.984 6.832 5.304 7.216C5.624 7.584 6.112 7.872 6.768 8.08L10.056 9.112C11.48 9.576 12.544 10.216 13.248 11.032C13.968 11.848 14.328 12.856 14.328 14.056C14.328 15.08 14.064 15.984 13.536 16.768C13.008 17.552 12.28 18.168 11.352 18.616C10.424 19.064 9.344 19.288 8.112 19.288ZM22.9551 19.144C21.4831 19.144 20.3391 18.744 19.5231 17.944C18.7231 17.128 18.3231 15.984 18.3231 14.512V8.752H16.0671V5.944H16.3071C16.9471 5.944 17.4431 5.776 17.7951 5.44C18.1471 5.104 18.3231 4.616 18.3231 3.976V2.968H21.4671V5.944H24.4671V8.752H21.4671V14.344C21.4671 14.776 21.5391 15.144 21.6831 15.448C21.8431 15.752 22.0831 15.984 22.4031 16.144C22.7391 16.304 23.1631 16.384 23.6751 16.384C23.7871 16.384 23.9151 16.376 24.0591 16.36C24.2191 16.344 24.3711 16.328 24.5151 16.312V19C24.2911 19.032 24.0351 19.064 23.7471 19.096C23.4591 19.128 23.1951 19.144 22.9551 19.144ZM26.9171 19V5.944H29.8691V8.848L29.6291 8.416C29.9331 7.44 30.4051 6.76 31.0451 6.376C31.7011 5.992 32.4851 5.8 33.3971 5.8H34.1651V8.584H33.0371C32.1411 8.584 31.4211 8.864 30.8771 9.424C30.3331 9.968 30.0611 10.736 30.0611 11.728V19H26.9171ZM39.8537 19.288C38.9417 19.288 38.1497 19.136 37.4777 18.832C36.8057 18.528 36.2857 18.096 35.9177 17.536C35.5497 16.96 35.3657 16.296 35.3657 15.544C35.3657 14.824 35.5257 14.184 35.8457 13.624C36.1657 13.048 36.6617 12.568 37.3337 12.184C38.0057 11.8 38.8537 11.528 39.8777 11.368L44.1497 10.672V13.072L40.4777 13.696C39.8537 13.808 39.3897 14.008 39.0857 14.296C38.7817 14.584 38.6297 14.96 38.6297 15.424C38.6297 15.872 38.7977 16.232 39.1337 16.504C39.4857 16.76 39.9177 16.888 40.4297 16.888C41.0857 16.888 41.6617 16.752 42.1577 16.48C42.6697 16.192 43.0617 15.8 43.3337 15.304C43.6217 14.808 43.7657 14.264 43.7657 13.672V10.312C43.7657 9.752 43.5417 9.288 43.0937 8.92C42.6617 8.536 42.0857 8.344 41.3657 8.344C40.6937 8.344 40.0937 8.528 39.5657 8.896C39.0537 9.248 38.6777 9.72 38.4377 10.312L35.8697 9.064C36.1257 8.376 36.5257 7.784 37.0697 7.288C37.6297 6.776 38.2857 6.376 39.0377 6.088C39.7897 5.8 40.6057 5.656 41.4857 5.656C42.5577 5.656 43.5017 5.856 44.3177 6.256C45.1337 6.64 45.7657 7.184 46.2137 7.888C46.6777 8.576 46.9097 9.384 46.9097 10.312V19H43.9337V16.768L44.6057 16.72C44.2697 17.28 43.8697 17.752 43.4057 18.136C42.9417 18.504 42.4137 18.792 41.8217 19C41.2297 19.192 40.5737 19.288 39.8537 19.288ZM55.5332 19.144C54.0612 19.144 52.9172 18.744 52.1012 17.944C51.3012 17.128 50.9012 15.984 50.9012 14.512V8.752H48.6452V5.944H48.8852C49.5252 5.944 50.0212 5.776 50.3732 5.44C50.7252 5.104 50.9012 4.616 50.9012 3.976V2.968H54.0452V5.944H57.0452V8.752H54.0452V14.344C54.0452 14.776 54.1172 15.144 54.2612 15.448C54.4212 15.752 54.6612 15.984 54.9812 16.144C55.3172 16.304 55.7412 16.384 56.2532 16.384C56.3652 16.384 56.4932 16.376 56.6372 16.36C56.7972 16.344 56.9492 16.328 57.0932 16.312V19C56.8692 19.032 56.6132 19.064 56.3252 19.096C56.0372 19.128 55.7732 19.144 55.5332 19.144ZM63.4084 19.288C62.4964 19.288 61.7044 19.136 61.0324 18.832C60.3604 18.528 59.8404 18.096 59.4724 17.536C59.1044 16.96 58.9204 16.296 58.9204 15.544C58.9204 14.824 59.0804 14.184 59.4004 13.624C59.7204 13.048 60.2164 12.568 60.8884 12.184C61.5604 11.8 62.4084 11.528 63.4324 11.368L67.7044 10.672V13.072L64.0324 13.696C63.4084 13.808 62.9444 14.008 62.6404 14.296C62.3364 14.584 62.1844 14.96 62.1844 15.424C62.1844 15.872 62.3524 16.232 62.6884 16.504C63.0404 16.76 63.4724 16.888 63.9844 16.888C64.6404 16.888 65.2164 16.752 65.7124 16.48C66.2244 16.192 66.6164 15.8 66.8884 15.304C67.1764 14.808 67.3204 14.264 67.3204 13.672V10.312C67.3204 9.752 67.0964 9.288 66.6484 8.92C66.2164 8.536 65.6404 8.344 64.9204 8.344C64.2484 8.344 63.6484 8.528 63.1204 8.896C62.6084 9.248 62.2324 9.72 61.9924 10.312L59.4244 9.064C59.6804 8.376 60.0804 7.784 60.6244 7.288C61.1844 6.776 61.8404 6.376 62.5924 6.088C63.3444 5.8 64.1604 5.656 65.0404 5.656C66.1124 5.656 67.0564 5.856 67.8724 6.256C68.6884 6.64 69.3204 7.184 69.7684 7.888C70.2324 8.576 70.4644 9.384 70.4644 10.312V19H67.4884V16.768L68.1604 16.72C67.8244 17.28 67.4244 17.752 66.9604 18.136C66.4964 18.504 65.9684 18.792 65.3764 19C64.7844 19.192 64.1284 19.288 63.4084 19.288Z" fill="white"/>
</svg>
