<svg width="32" height="32" viewBox="0 0 32 32" fill="none" xmlns="http://www.w3.org/2000/svg">
<g clip-path="url(#clip0_117_1677)">
<path d="M0 8C0 3.58172 3.58172 0 8 0H24C28.4183 0 32 3.58172 32 8V24C32 28.4183 28.4183 32 24 32H8C3.58172 32 0 28.4183 0 24V8Z" fill="black"/>
<path d="M16.512 25.488C15.376 25.488 14.32 25.28 13.344 24.864C12.384 24.448 11.552 23.872 10.848 23.136C10.16 22.384 9.656 21.512 9.336 20.52L12.048 19.344C12.48 20.368 13.104 21.176 13.92 21.768C14.736 22.344 15.656 22.632 16.68 22.632C17.256 22.632 17.752 22.544 18.168 22.368C18.6 22.176 18.928 21.92 19.152 21.6C19.392 21.28 19.512 20.896 19.512 20.448C19.512 19.92 19.352 19.488 19.032 19.152C18.728 18.8 18.264 18.528 17.64 18.336L14.208 17.232C12.816 16.8 11.768 16.152 11.064 15.288C10.36 14.424 10.008 13.408 10.008 12.24C10.008 11.216 10.256 10.312 10.752 9.528C11.264 8.744 11.968 8.136 12.864 7.704C13.776 7.256 14.816 7.032 15.984 7.032C17.056 7.032 18.04 7.224 18.936 7.608C19.832 7.976 20.6 8.496 21.24 9.168C21.896 9.824 22.384 10.6 22.704 11.496L20.016 12.696C19.664 11.8 19.136 11.112 18.432 10.632C17.728 10.136 16.912 9.888 15.984 9.888C15.44 9.888 14.96 9.984 14.544 10.176C14.128 10.352 13.8 10.608 13.56 10.944C13.336 11.264 13.224 11.648 13.224 12.096C13.224 12.592 13.384 13.032 13.704 13.416C14.024 13.784 14.512 14.072 15.168 14.28L18.456 15.312C19.88 15.776 20.944 16.416 21.648 17.232C22.368 18.048 22.728 19.056 22.728 20.256C22.728 21.28 22.464 22.184 21.936 22.968C21.408 23.752 20.68 24.368 19.752 24.816C18.824 25.264 17.744 25.488 16.512 25.488Z" fill="white"/>
</g>
<defs>
<clipPath id="clip0_117_1677">
<path d="M0 8C0 3.58172 3.58172 0 8 0H24C28.4183 0 32 3.58172 32 8V24C32 28.4183 28.4183 32 24 32H8C3.58172 32 0 28.4183 0 24V8Z" fill="white"/>
</clipPath>
</defs>
</svg>
